<?xml version="1.0" encoding="UTF-8"?>
<!DOCTYPE svg PUBLIC "-//W3C//DTD SVG 1.1//EN" "http://www.w3.org/Graphics/SVG/1.1/DTD/svg11.dtd">
<!-- Creator: CorelDRAW 2017 -->
<svg xmlns="http://www.w3.org/2000/svg" xml:space="preserve" width="391px" height="391px" version="1.1" style="shape-rendering:geometricPrecision; text-rendering:geometricPrecision; image-rendering:optimizeQuality; fill-rule:evenodd; clip-rule:evenodd"
viewBox="0 0 133.44 133.39"
 xmlns:xlink="http://www.w3.org/1999/xlink">
 <defs>
  <style type="text/css">
   <![CDATA[
    .fil0 {fill:#C9C9C9}
   ]]>
  </style>
 </defs>
 <g id="Слой_x0020_1">
  <metadata id="CorelCorpID_0Corel-Layer"/>
  <g id="_2637613110800">
   <path class="fil0" d="M35.05 11.89c4.14,-0.31 9.21,-0.11 13.46,-0.09l41.13 -0.01c10.02,0.04 15.62,0.12 22.25,5.26 11.1,8.59 9.68,19.23 9.68,31.37l0 41.12c0.02,10.17 -0.1,15.48 -5.27,22.25 -3.52,4.61 -9.49,8.84 -17.67,9.57 -5.3,0.47 -48.03,0.09 -54.81,0.11 -9.82,0.04 -15.87,-0.24 -22.24,-5.26 -4.61,-3.62 -8.88,-9.33 -9.58,-17.7 -0.36,-4.27 -0.11,-21.8 -0.11,-27.45 -0.01,-9.11 0.01,-18.22 0.01,-27.33 -0.01,-9.87 0.11,-15.79 5.25,-22.25 3.73,-4.66 9.39,-8.94 17.9,-9.59zm62.51 -11.89l-61.88 0c-2.92,0.98 -10.7,-0.4 -21.45,7.89 -5.22,4.02 -9.21,9.2 -12.17,17.24 -2.77,7.52 -1.93,18.87 -1.97,27.45 -0.05,9.8 0.03,19.61 0.01,29.41 -0.03,17.85 -1.16,31.72 14.88,43.95 5.76,4.39 12.71,7.06 22.07,7.33 9.73,0.27 19.9,0.01 29.68,0.01 9.75,0 19.7,0.18 29.43,-0.01 12.14,-0.24 23.3,-5.68 29.52,-14.45 8.96,-12.64 7.71,-20.52 7.68,-36.83 -0.02,-9.8 0.06,-19.61 0.01,-29.41 -0.07,-12.79 1.28,-26.92 -6.9,-37.1l-3.24 -4.04c-4.04,-4.78 -12.41,-9.18 -19.06,-10.61 -1.59,-0.34 -5.71,-0.53 -6.61,-0.83z"/>
   <path class="fil0" d="M63.16 44.44c13.28,-2.16 24,7.43 25.78,18.45 2.18,13.4 -7.46,24.24 -18.46,25.96 -13.37,2.09 -24.19,-7.3 -25.96,-18.47 -2.17,-13.73 7.45,-24.11 18.64,-25.94zm-30.71 22.98c0.35,5.67 1.18,9.3 3.26,13.84 8.66,18.83 33.57,26.05 51.03,13.19 8.24,-6.07 14.8,-16.08 14.28,-28.51 -0.23,-5.49 -1.27,-9.61 -3.27,-13.93 -5.26,-11.39 -17.86,-20.16 -31.74,-19.65 -5.05,0.19 -9.9,1.3 -13.89,3.27 -11.37,5.63 -20.55,17.76 -19.67,31.79z"/>
   <path class="fil0" d="M93.94 31.76c0.36,4.44 4.35,8.14 9.23,7.77 11.4,-0.87 9.97,-18.3 -1.56,-17.16 -4.45,0.44 -8.07,4.37 -7.67,9.39z"/>
  </g>
 </g>
</svg>
