<?xml version="1.0" encoding="UTF-8"?>
<!DOCTYPE svg PUBLIC "-//W3C//DTD SVG 1.1//EN" "http://www.w3.org/Graphics/SVG/1.1/DTD/svg11.dtd">
<!-- Creator: CorelDRAW 2017 -->
<svg xmlns="http://www.w3.org/2000/svg" xml:space="preserve" width="386px" height="337px" version="1.1" style="shape-rendering:geometricPrecision; text-rendering:geometricPrecision; image-rendering:optimizeQuality; fill-rule:evenodd; clip-rule:evenodd"
viewBox="0 0 697.03 607.71"
 xmlns:xlink="http://www.w3.org/1999/xlink">
 <defs>
  <style type="text/css">
   <![CDATA[
    .fil0 {fill:#C9C9C9}
   ]]>
  </style>
 </defs>
 <g id="Слой_x0020_1">
  <metadata id="CorelCorpID_0Corel-Layer"/>
  <path class="fil0" d="M210.51 345.73c0,-23.77 28.16,-34.1 54.09,-50.46 3.7,-2.33 6.58,-3.93 10.48,-6.25l258.75 -159.48c5.24,-3.27 5.58,-4.33 12.65,-2.68 0,11.05 -3.74,8.82 -10.14,14.96l-32.1 30.63c-3.35,2.8 -4.35,3.07 -7.63,6.31 -4.35,4.3 -8.02,8.59 -12.53,12.56l-53.66 49.51c-5.1,5.14 -9.08,7.61 -13.96,12.52 -19.54,19.64 -47.57,43.22 -66.19,62.06 -5.07,5.13 -8.98,7.49 -13.96,12.53 -8.82,8.92 -16.95,15.5 -25.77,24.42l-26.52 25.06c-10.14,10.06 -13.02,18.39 -15.57,36.01 -2.23,15.4 -4.65,30.77 -6.25,45.33 -0.78,7.08 -0.81,16.89 -5.68,19.6 -7.84,4.36 -10.88,-4.86 -12.76,-11.15 -3.9,-13.12 -7.41,-26.65 -11.25,-40.32 -3.48,-12.39 -22,-72.87 -22,-81.16zm-210.51 -75.28c0,12.71 1.08,16.87 16.29,22.74l122.91 45.78c7.64,2.85 15.93,6.13 24.45,9 11.37,3.83 8.3,2.25 14.28,20.57l56.06 180.93c3.75,10.6 8.45,15.13 21.12,15.13 7.19,0 15.09,-8.18 19.96,-12.11l52.97 -43.22c8.64,-6.95 27.71,-24.62 37.3,-26.93 16.14,-3.9 33.79,12.56 51.1,25.48 3.6,2.69 5.81,4.55 9.58,7.15l111.49 80.9c12.08,9.13 24.4,18.7 36.79,4.92 6.16,-6.85 11.8,-42.59 14.11,-54.2 19.74,-98.91 42.49,-200.81 62.26,-300.2l15.69 -74.92c2.41,-10.07 30.67,-139.97 30.67,-154.74 0,-9.09 -7.85,-16.73 -19.51,-16.73 -9.93,0 -192.68,72.24 -214.49,81.06l-427.58 164.89c-15.29,6.14 -35.45,9.88 -35.45,24.5z"/>
 </g>
</svg>
