<svg width="80" height="80" viewBox="0 0 80 80" fill="none" xmlns="http://www.w3.org/2000/svg">
<path opacity="0.2" d="M39.9999 14.8387C37.8063 14.8387 36.1289 13.1613 36.1289 10.9677V3.87097C36.1289 1.67742 37.8063 0 39.9999 0C42.1934 0 43.8708 1.67742 43.8708 3.87097V10.9677C43.8708 13.0323 42.1934 14.8387 39.9999 14.8387Z" fill="#2F80ED"/>
<path opacity="0.6" d="M39.9999 80C37.8063 80 36.1289 78.3226 36.1289 76.129V69.0323C36.1289 66.8387 37.8063 65.1613 39.9999 65.1613C42.1934 65.1613 43.8708 66.8387 43.8708 69.0323V76.129C43.8708 78.3226 42.1934 80 39.9999 80Z" fill="#2F80ED"/>
<path opacity="0.15" d="M25.4192 18.7097C24.1289 18.7097 22.8386 18.0645 22.0644 16.7742L18.5805 10.7097C17.5483 8.90323 18.1934 6.45161 19.9999 5.41936C21.8063 4.3871 24.258 5.03226 25.2902 6.83871L28.7741 12.9032C29.8063 14.7097 29.1612 17.1613 27.3547 18.1935C26.8386 18.4516 26.0644 18.7097 25.4192 18.7097Z" fill="#2F80ED"/>
<path opacity="0.5" d="M58.0643 75.0968C56.7739 75.0968 55.4836 74.4516 54.7094 73.1613L51.2256 67.0968C50.1933 65.2903 50.8385 62.8387 52.6449 61.8065C54.4514 60.7742 56.903 61.4194 57.9352 63.2258L61.4191 69.2903C62.4514 71.0968 61.8062 73.5484 59.9998 74.5806C59.3546 74.9677 58.7094 75.0968 58.0643 75.0968Z" fill="#2F80ED"/>
<path opacity="0.1" d="M14.8388 29.2903C14.1936 29.2903 13.5484 29.1613 12.9033 28.7742L6.83876 25.2903C5.0323 24.2581 4.38714 21.8064 5.4194 20C6.45166 18.1935 8.90327 17.5484 10.7097 18.5806L16.7742 22.0645C18.5807 23.0968 19.2259 25.5484 18.1936 27.3548C17.4194 28.6452 16.1291 29.2903 14.8388 29.2903Z" fill="#2F80ED"/>
<path opacity="0.4" d="M71.3545 61.9355C70.7093 61.9355 70.0642 61.8064 69.419 61.4193L63.2255 57.9355C61.419 56.9032 60.7739 54.4516 61.8061 52.6452C62.8384 50.8387 65.29 50.1935 67.0964 51.2258L73.161 54.7097C74.9674 55.7419 75.6126 58.1935 74.5803 60C73.9352 61.2903 72.6448 61.9355 71.3545 61.9355Z" fill="#2F80ED"/>
<path opacity="0.05" d="M10.9677 43.871H3.87097C1.67742 43.871 0 42.1935 0 40C0 37.8064 1.67742 36.129 3.87097 36.129H10.9677C13.1613 36.129 14.8387 37.8064 14.8387 40C14.8387 42.1935 13.0323 43.871 10.9677 43.871Z" fill="#2F80ED"/>
<path opacity="0.35" d="M76.1289 43.871H69.0321C66.8386 43.871 65.1611 42.1935 65.1611 40C65.1611 37.8064 66.8386 36.129 69.0321 36.129H76.1289C78.3224 36.129 79.9998 37.8064 79.9998 40C79.9998 42.1935 78.3224 43.871 76.1289 43.871Z" fill="#2F80ED"/>
<path opacity="0.8" d="M8.64485 61.9355C7.35452 61.9355 6.0642 61.2903 5.29001 60C4.25775 58.1935 4.90291 55.7419 6.70936 54.7097L12.7739 51.2258C14.5803 50.1935 17.0319 50.8387 18.0642 52.6452C19.0965 54.4516 18.4513 56.9032 16.6448 57.9355L10.5803 61.4193C10.0642 61.8064 9.41904 61.9355 8.64485 61.9355Z" fill="#2F80ED"/>
<path opacity="0.3" d="M65.161 29.2903C63.8706 29.2903 62.5803 28.6452 61.8061 27.3548C60.7739 25.5484 61.419 23.0968 63.2255 22.0645L69.29 18.5806C71.0964 17.5484 73.5481 18.1935 74.5803 20C75.6126 21.8064 74.9674 24.2581 73.161 25.2903L67.0964 28.7742C66.4513 29.1613 65.8061 29.2903 65.161 29.2903Z" fill="#2F80ED"/>
<path opacity="0.7" d="M21.9354 75.0968C21.2902 75.0968 20.6451 74.9677 19.9999 74.5806C18.1934 73.5484 17.5483 71.0968 18.5805 69.2903L22.0644 63.2258C23.0967 61.4194 25.5483 60.7742 27.3547 61.8065C29.1612 62.8387 29.8063 65.2903 28.7741 67.0968L25.2902 73.1613C24.516 74.4516 23.2257 75.0968 21.9354 75.0968Z" fill="#2F80ED"/>
<path opacity="0.25" d="M54.5804 18.7097C53.9352 18.7097 53.2901 18.5806 52.6449 18.1935C50.8385 17.1613 50.1933 14.7097 51.2256 12.9032L54.7094 6.83871C55.7417 5.03226 58.1933 4.3871 59.9998 5.41936C61.8062 6.45161 62.4514 8.90323 61.4191 10.7097L57.9352 16.7742C57.161 17.9355 55.8707 18.7097 54.5804 18.7097Z" fill="#2F80ED"/>
</svg>
